<mxfile host="65bd71144e">
    <diagram id="qA7XMudlREKWB5OkfK_x" name="Page-1">
        <mxGraphModel dx="2759" dy="1658" grid="1" gridSize="10" guides="1" tooltips="1" connect="1" arrows="1" fold="1" page="1" pageScale="1" pageWidth="1654" pageHeight="2336" math="0" shadow="0">
            <root>
                <mxCell id="0"/>
                <mxCell id="1" parent="0"/>
                <mxCell id="2" value="Data Types" style="rounded=1;whiteSpace=wrap;html=1;fontSize=17;" vertex="1" parent="1">
                    <mxGeometry x="180" y="90" width="120" height="60" as="geometry"/>
                </mxCell>
                <mxCell id="3" value="Integer Types" style="rounded=0;whiteSpace=wrap;html=1;fontSize=17;" vertex="1" parent="1">
                    <mxGeometry x="180" y="210" width="120" height="60" as="geometry"/>
                </mxCell>
                <mxCell id="4" value="Byte" style="rounded=0;whiteSpace=wrap;html=1;fontSize=17;" vertex="1" parent="1">
                    <mxGeometry y="310" width="120" height="60" as="geometry"/>
                </mxCell>
                <mxCell id="5" value="Short" style="rounded=0;whiteSpace=wrap;html=1;fontSize=17;" vertex="1" parent="1">
                    <mxGeometry x="170" y="310" width="120" height="60" as="geometry"/>
                </mxCell>
                <mxCell id="6" value="Int" style="rounded=0;whiteSpace=wrap;html=1;fontSize=17;" vertex="1" parent="1">
                    <mxGeometry x="340" y="310" width="120" height="60" as="geometry"/>
                </mxCell>
                <mxCell id="7" value="Long" style="rounded=0;whiteSpace=wrap;html=1;fontSize=17;" vertex="1" parent="1">
                    <mxGeometry x="500" y="310" width="120" height="60" as="geometry"/>
                </mxCell>
                <mxCell id="8" value="Floating-point Types" style="rounded=0;whiteSpace=wrap;html=1;fontSize=17;" vertex="1" parent="1">
                    <mxGeometry x="-190" y="210" width="120" height="60" as="geometry"/>
                </mxCell>
                <mxCell id="9" value="Double" style="rounded=0;whiteSpace=wrap;html=1;fontSize=17;" vertex="1" parent="1">
                    <mxGeometry x="-200" y="310" width="120" height="60" as="geometry"/>
                </mxCell>
                <mxCell id="10" value="Float" style="rounded=0;whiteSpace=wrap;html=1;fontSize=17;" vertex="1" parent="1">
                    <mxGeometry x="-390" y="310" width="120" height="60" as="geometry"/>
                </mxCell>
                <mxCell id="11" value="Booleans" style="rounded=0;whiteSpace=wrap;html=1;fontSize=17;" vertex="1" parent="1">
                    <mxGeometry x="630" y="210" width="120" height="60" as="geometry"/>
                </mxCell>
            </root>
        </mxGraphModel>
    </diagram>
</mxfile>